<mxfile host="app.diagrams.net" modified="2023-09-28T23:53:15.892Z" agent="Mozilla/5.0 (X11; Linux x86_64) AppleWebKit/537.36 (KHTML, like Gecko) Chrome/117.0.0.0 Safari/537.36" etag="4OqgvdHZuz8OrgnaVJIl" version="22.0.0" type="device">
  <diagram id="c8nlxInh7qi0cRRuTaQq" name="Page-1">
    <mxGraphModel dx="1707" dy="528" grid="1" gridSize="10" guides="1" tooltips="1" connect="1" arrows="1" fold="1" page="1" pageScale="1" pageWidth="827" pageHeight="1169" math="0" shadow="0">
      <root>
        <mxCell id="0" />
        <mxCell id="1" parent="0" />
        <mxCell id="kElJVslwKRPhUcr0Wzcg-49" style="edgeStyle=orthogonalEdgeStyle;rounded=0;orthogonalLoop=1;jettySize=auto;html=1;endArrow=open;endFill=0;endSize=10;" edge="1" parent="1" source="8" target="kElJVslwKRPhUcr0Wzcg-29">
          <mxGeometry relative="1" as="geometry" />
        </mxCell>
        <mxCell id="kElJVslwKRPhUcr0Wzcg-50" style="edgeStyle=orthogonalEdgeStyle;rounded=0;orthogonalLoop=1;jettySize=auto;html=1;endArrow=open;endFill=0;strokeWidth=1;endSize=10;" edge="1" parent="1" source="8" target="kElJVslwKRPhUcr0Wzcg-34">
          <mxGeometry relative="1" as="geometry">
            <Array as="points">
              <mxPoint x="660" y="80" />
            </Array>
          </mxGeometry>
        </mxCell>
        <mxCell id="8" value="&lt;p style=&quot;line-height: 120%;&quot;&gt;Carro&lt;/p&gt;" style="swimlane;fontStyle=1;align=center;verticalAlign=middle;childLayout=stackLayout;horizontal=1;startSize=30;horizontalStack=0;resizeParent=1;resizeParentMax=0;resizeLast=0;collapsible=0;marginBottom=0;html=1;whiteSpace=wrap;" parent="1" vertex="1">
          <mxGeometry x="46" y="30" width="368" height="113" as="geometry" />
        </mxCell>
        <mxCell id="9" value="- distanciaPercorrida: float" style="text;html=1;strokeColor=none;fillColor=none;align=left;verticalAlign=middle;spacingLeft=4;spacingRight=4;overflow=hidden;rotatable=0;points=[[0,0.5],[1,0.5]];portConstraint=eastwest;whiteSpace=wrap;" parent="8" vertex="1">
          <mxGeometry y="30" width="368" height="25" as="geometry" />
        </mxCell>
        <mxCell id="18" value="- medidorDistanciaEmMetros:&amp;nbsp;MedidorDistanciaAdapter" style="text;html=1;strokeColor=none;fillColor=none;align=left;verticalAlign=middle;spacingLeft=4;spacingRight=4;overflow=hidden;rotatable=0;points=[[0,0.5],[1,0.5]];portConstraint=eastwest;whiteSpace=wrap;" parent="8" vertex="1">
          <mxGeometry y="55" width="368" height="25" as="geometry" />
        </mxCell>
        <mxCell id="11" value="" style="line;html=1;strokeWidth=1;align=left;verticalAlign=middle;spacingTop=-1;spacingLeft=3;spacingRight=3;rotatable=0;labelPosition=right;points=[];portConstraint=eastwest;" parent="8" vertex="1">
          <mxGeometry y="80" width="368" height="8" as="geometry" />
        </mxCell>
        <mxCell id="13" value="+&amp;nbsp;getDistanciaPercorridaEmMetros&lt;span style=&quot;background-color: initial;&quot;&gt;(): float&lt;/span&gt;" style="text;html=1;strokeColor=none;fillColor=none;align=left;verticalAlign=middle;spacingLeft=4;spacingRight=4;overflow=hidden;rotatable=0;points=[[0,0.5],[1,0.5]];portConstraint=eastwest;whiteSpace=wrap;" parent="8" vertex="1">
          <mxGeometry y="88" width="368" height="25" as="geometry" />
        </mxCell>
        <mxCell id="kElJVslwKRPhUcr0Wzcg-29" value="&lt;p style=&quot;line-height: 120%;&quot;&gt;&amp;lt;&amp;lt;interface&amp;gt;&amp;gt;&lt;/p&gt;&lt;p style=&quot;line-height: 120%;&quot;&gt;IMedidorDistanciaEmMetros&lt;/p&gt;" style="swimlane;fontStyle=1;align=center;verticalAlign=middle;childLayout=stackLayout;horizontal=1;startSize=60;horizontalStack=0;resizeParent=1;resizeParentMax=0;resizeLast=0;collapsible=0;marginBottom=0;html=1;whiteSpace=wrap;" vertex="1" parent="1">
          <mxGeometry x="46" y="220" width="368" height="93" as="geometry" />
        </mxCell>
        <mxCell id="kElJVslwKRPhUcr0Wzcg-32" value="" style="line;html=1;strokeWidth=1;align=left;verticalAlign=middle;spacingTop=-1;spacingLeft=3;spacingRight=3;rotatable=0;labelPosition=right;points=[];portConstraint=eastwest;" vertex="1" parent="kElJVslwKRPhUcr0Wzcg-29">
          <mxGeometry y="60" width="368" height="8" as="geometry" />
        </mxCell>
        <mxCell id="kElJVslwKRPhUcr0Wzcg-33" value="+&amp;nbsp;obterDistanciaEmMetros&lt;span style=&quot;background-color: initial;&quot;&gt;(distancia: float): float&lt;/span&gt;" style="text;html=1;strokeColor=none;fillColor=none;align=left;verticalAlign=middle;spacingLeft=4;spacingRight=4;overflow=hidden;rotatable=0;points=[[0,0.5],[1,0.5]];portConstraint=eastwest;whiteSpace=wrap;" vertex="1" parent="kElJVslwKRPhUcr0Wzcg-29">
          <mxGeometry y="68" width="368" height="25" as="geometry" />
        </mxCell>
        <mxCell id="kElJVslwKRPhUcr0Wzcg-47" style="edgeStyle=orthogonalEdgeStyle;rounded=0;orthogonalLoop=1;jettySize=auto;html=1;endArrow=open;endFill=0;endSize=10;" edge="1" parent="1" source="kElJVslwKRPhUcr0Wzcg-34" target="kElJVslwKRPhUcr0Wzcg-29">
          <mxGeometry relative="1" as="geometry">
            <Array as="points">
              <mxPoint x="630" y="267" />
            </Array>
          </mxGeometry>
        </mxCell>
        <mxCell id="kElJVslwKRPhUcr0Wzcg-48" style="edgeStyle=orthogonalEdgeStyle;rounded=0;orthogonalLoop=1;jettySize=auto;html=1;dashed=1;endArrow=open;endFill=0;endSize=10;" edge="1" parent="1" source="kElJVslwKRPhUcr0Wzcg-34" target="kElJVslwKRPhUcr0Wzcg-29">
          <mxGeometry relative="1" as="geometry">
            <Array as="points">
              <mxPoint x="610" y="300" />
            </Array>
          </mxGeometry>
        </mxCell>
        <mxCell id="kElJVslwKRPhUcr0Wzcg-34" value="&lt;p style=&quot;line-height: 120%;&quot;&gt;MedidorDistanciaAdapter&lt;/p&gt;" style="swimlane;fontStyle=1;align=center;verticalAlign=middle;childLayout=stackLayout;horizontal=1;startSize=30;horizontalStack=0;resizeParent=1;resizeParentMax=0;resizeLast=0;collapsible=0;marginBottom=0;html=1;whiteSpace=wrap;" vertex="1" parent="1">
          <mxGeometry x="470" y="400" width="368" height="88" as="geometry" />
        </mxCell>
        <mxCell id="kElJVslwKRPhUcr0Wzcg-36" value="- medidorDistanciaEmMetros:&amp;nbsp;IMedidorDistanciaEmMetros" style="text;html=1;strokeColor=none;fillColor=none;align=left;verticalAlign=middle;spacingLeft=4;spacingRight=4;overflow=hidden;rotatable=0;points=[[0,0.5],[1,0.5]];portConstraint=eastwest;whiteSpace=wrap;" vertex="1" parent="kElJVslwKRPhUcr0Wzcg-34">
          <mxGeometry y="30" width="368" height="25" as="geometry" />
        </mxCell>
        <mxCell id="kElJVslwKRPhUcr0Wzcg-37" value="" style="line;html=1;strokeWidth=1;align=left;verticalAlign=middle;spacingTop=-1;spacingLeft=3;spacingRight=3;rotatable=0;labelPosition=right;points=[];portConstraint=eastwest;" vertex="1" parent="kElJVslwKRPhUcr0Wzcg-34">
          <mxGeometry y="55" width="368" height="8" as="geometry" />
        </mxCell>
        <mxCell id="kElJVslwKRPhUcr0Wzcg-38" value="+&amp;nbsp;calcularDistancia&lt;span style=&quot;background-color: initial;&quot;&gt;(distancia: float): float&lt;/span&gt;" style="text;html=1;strokeColor=none;fillColor=none;align=left;verticalAlign=middle;spacingLeft=4;spacingRight=4;overflow=hidden;rotatable=0;points=[[0,0.5],[1,0.5]];portConstraint=eastwest;whiteSpace=wrap;" vertex="1" parent="kElJVslwKRPhUcr0Wzcg-34">
          <mxGeometry y="63" width="368" height="25" as="geometry" />
        </mxCell>
        <mxCell id="kElJVslwKRPhUcr0Wzcg-45" style="edgeStyle=orthogonalEdgeStyle;rounded=0;orthogonalLoop=1;jettySize=auto;html=1;endArrow=block;endFill=0;endSize=10;" edge="1" parent="1" source="kElJVslwKRPhUcr0Wzcg-39" target="kElJVslwKRPhUcr0Wzcg-29">
          <mxGeometry relative="1" as="geometry">
            <Array as="points">
              <mxPoint x="-196" y="350" />
              <mxPoint x="230" y="350" />
            </Array>
          </mxGeometry>
        </mxCell>
        <mxCell id="kElJVslwKRPhUcr0Wzcg-39" value="&lt;p style=&quot;line-height: 120%;&quot;&gt;MedidorMilhasPraMetros&lt;/p&gt;" style="swimlane;fontStyle=1;align=center;verticalAlign=middle;childLayout=stackLayout;horizontal=1;startSize=30;horizontalStack=0;resizeParent=1;resizeParentMax=0;resizeLast=0;collapsible=0;marginBottom=0;html=1;whiteSpace=wrap;" vertex="1" parent="1">
          <mxGeometry x="-380" y="400" width="368" height="38" as="geometry" />
        </mxCell>
        <mxCell id="kElJVslwKRPhUcr0Wzcg-41" value="" style="line;html=1;strokeWidth=1;align=left;verticalAlign=middle;spacingTop=-1;spacingLeft=3;spacingRight=3;rotatable=0;labelPosition=right;points=[];portConstraint=eastwest;" vertex="1" parent="kElJVslwKRPhUcr0Wzcg-39">
          <mxGeometry y="30" width="368" height="8" as="geometry" />
        </mxCell>
        <mxCell id="kElJVslwKRPhUcr0Wzcg-46" style="edgeStyle=orthogonalEdgeStyle;rounded=0;orthogonalLoop=1;jettySize=auto;html=1;endArrow=block;endFill=0;endSize=10;" edge="1" parent="1" source="kElJVslwKRPhUcr0Wzcg-43" target="kElJVslwKRPhUcr0Wzcg-29">
          <mxGeometry relative="1" as="geometry" />
        </mxCell>
        <mxCell id="kElJVslwKRPhUcr0Wzcg-43" value="&lt;p style=&quot;line-height: 120%;&quot;&gt;MedidorQuilometrosPraMetros&lt;/p&gt;" style="swimlane;fontStyle=1;align=center;verticalAlign=middle;childLayout=stackLayout;horizontal=1;startSize=30;horizontalStack=0;resizeParent=1;resizeParentMax=0;resizeLast=0;collapsible=0;marginBottom=0;html=1;whiteSpace=wrap;" vertex="1" parent="1">
          <mxGeometry x="46" y="400" width="368" height="38" as="geometry" />
        </mxCell>
        <mxCell id="kElJVslwKRPhUcr0Wzcg-44" value="" style="line;html=1;strokeWidth=1;align=left;verticalAlign=middle;spacingTop=-1;spacingLeft=3;spacingRight=3;rotatable=0;labelPosition=right;points=[];portConstraint=eastwest;" vertex="1" parent="kElJVslwKRPhUcr0Wzcg-43">
          <mxGeometry y="30" width="368" height="8" as="geometry" />
        </mxCell>
      </root>
    </mxGraphModel>
  </diagram>
</mxfile>
